<?xml version="1.0" encoding="utf-8" ?>
<svg baseProfile="full" height="184" version="1.1" width="648" xmlns="http://www.w3.org/2000/svg" xmlns:ev="http://www.w3.org/2001/xml-events" xmlns:xlink="http://www.w3.org/1999/xlink"><defs /><text fill="#216E39" style="font-size:20px; font-family:Arial; font-weight:bold;" x="0" y="20">ZiGma's Read Time Heatmap</text><rect fill="#EBEDF0" height="10" rx="2" ry="2" width="10" x="0" y="96"><title>2026-01-01</title></rect><rect fill="#EBEDF0" height="10" rx="2" ry="2" width="10" x="0" y="108"><title>2026-01-02</title></rect><rect fill="#EBEDF0" height="10" rx="2" ry="2" width="10" x="0" y="120"><title>2026-01-03</title></rect><text fill="#30A14E" style="font-size:12px; font-family:Arial;" x="12" y="46">Jan</text><rect fill="#EBEDF0" height="10" rx="2" ry="2" width="10" x="12" y="48"><title>2026-01-04</title></rect><rect fill="#EBEDF0" height="10" rx="2" ry="2" width="10" x="12" y="60"><title>2026-01-05</title></rect><rect fill="#EBEDF0" height="10" rx="2" ry="2" width="10" x="12" y="72"><title>2026-01-06</title></rect><rect fill="#EBEDF0" height="10" rx="2" ry="2" width="10" x="12" y="84"><title>2026-01-07</title></rect><rect fill="#EBEDF0" height="10" rx="2" ry="2" width="10" x="12" y="96"><title>2026-01-08</title></rect><rect fill="#EBEDF0" height="10" rx="2" ry="2" width="10" x="12" y="108"><title>2026-01-09</title></rect><rect fill="#EBEDF0" height="10" rx="2" ry="2" width="10" x="12" y="120"><title>2026-01-10</title></rect><rect fill="#EBEDF0" height="10" rx="2" ry="2" width="10" x="24" y="48"><title>2026-01-11</title></rect><rect fill="#EBEDF0" height="10" rx="2" ry="2" width="10" x="24" y="60"><title>2026-01-12</title></rect><rect fill="#EBEDF0" height="10" rx="2" ry="2" width="10" x="24" y="72"><title>2026-01-13</title></rect><rect fill="#EBEDF0" height="10" rx="2" ry="2" width="10" x="24" y="84"><title>2026-01-14</title></rect><rect fill="#EBEDF0" height="10" rx="2" ry="2" width="10" x="24" y="96"><title>2026-01-15</title></rect><rect fill="#EBEDF0" height="10" rx="2" ry="2" width="10" x="24" y="108"><title>2026-01-16</title></rect><rect fill="#EBEDF0" height="10" rx="2" ry="2" width="10" x="24" y="120"><title>2026-01-17</title></rect><rect fill="#EBEDF0" height="10" rx="2" ry="2" width="10" x="36" y="48"><title>2026-01-18</title></rect><rect fill="#EBEDF0" height="10" rx="2" ry="2" width="10" x="36" y="60"><title>2026-01-19</title></rect><rect fill="#EBEDF0" height="10" rx="2" ry="2" width="10" x="36" y="72"><title>2026-01-20</title></rect><rect fill="#EBEDF0" height="10" rx="2" ry="2" width="10" x="36" y="84"><title>2026-01-21</title></rect><rect fill="#EBEDF0" height="10" rx="2" ry="2" width="10" x="36" y="96"><title>2026-01-22</title></rect><rect fill="#EBEDF0" height="10" rx="2" ry="2" width="10" x="36" y="108"><title>2026-01-23</title></rect><rect fill="#EBEDF0" height="10" rx="2" ry="2" width="10" x="36" y="120"><title>2026-01-24</title></rect><rect fill="#EBEDF0" height="10" rx="2" ry="2" width="10" x="48" y="48"><title>2026-01-25</title></rect><rect fill="#EBEDF0" height="10" rx="2" ry="2" width="10" x="48" y="60"><title>2026-01-26</title></rect><rect fill="#EBEDF0" height="10" rx="2" ry="2" width="10" x="48" y="72"><title>2026-01-27</title></rect><rect fill="#EBEDF0" height="10" rx="2" ry="2" width="10" x="48" y="84"><title>2026-01-28</title></rect><rect fill="#EBEDF0" height="10" rx="2" ry="2" width="10" x="48" y="96"><title>2026-01-29</title></rect><rect fill="#EBEDF0" height="10" rx="2" ry="2" width="10" x="48" y="108"><title>2026-01-30</title></rect><rect fill="#EBEDF0" height="10" rx="2" ry="2" width="10" x="48" y="120"><title>2026-01-31</title></rect><text fill="#30A14E" style="font-size:12px; font-family:Arial;" x="60" y="46">Feb</text><rect fill="#EBEDF0" height="10" rx="2" ry="2" width="10" x="60" y="48"><title>2026-02-01</title></rect><rect fill="#EBEDF0" height="10" rx="2" ry="2" width="10" x="60" y="60"><title>2026-02-02</title></rect><rect fill="#EBEDF0" height="10" rx="2" ry="2" width="10" x="60" y="72"><title>2026-02-03</title></rect><rect fill="#EBEDF0" height="10" rx="2" ry="2" width="10" x="60" y="84"><title>2026-02-04</title></rect><rect fill="#EBEDF0" height="10" rx="2" ry="2" width="10" x="60" y="96"><title>2026-02-05</title></rect><rect fill="#EBEDF0" height="10" rx="2" ry="2" width="10" x="60" y="108"><title>2026-02-06</title></rect><rect fill="#EBEDF0" height="10" rx="2" ry="2" width="10" x="60" y="120"><title>2026-02-07</title></rect><rect fill="#EBEDF0" height="10" rx="2" ry="2" width="10" x="72" y="48"><title>2026-02-08</title></rect><rect fill="#EBEDF0" height="10" rx="2" ry="2" width="10" x="72" y="60"><title>2026-02-09</title></rect><rect fill="#EBEDF0" height="10" rx="2" ry="2" width="10" x="72" y="72"><title>2026-02-10</title></rect><rect fill="#EBEDF0" height="10" rx="2" ry="2" width="10" x="72" y="84"><title>2026-02-11</title></rect><rect fill="#EBEDF0" height="10" rx="2" ry="2" width="10" x="72" y="96"><title>2026-02-12</title></rect><rect fill="#216E39" height="10" rx="2" ry="2" width="10" x="72" y="108"><title>2026-02-13 7小时10分钟</title></rect><rect fill="#9BE9A8" height="10" rx="2" ry="2" width="10" x="72" y="120"><title>2026-02-14 29分钟</title></rect><rect fill="#9BE9A8" height="10" rx="2" ry="2" width="10" x="84" y="48"><title>2026-02-15 8分钟</title></rect><rect fill="#EBEDF0" height="10" rx="2" ry="2" width="10" x="84" y="60"><title>2026-02-16</title></rect><rect fill="#EBEDF0" height="10" rx="2" ry="2" width="10" x="84" y="72"><title>2026-02-17</title></rect><rect fill="#EBEDF0" height="10" rx="2" ry="2" width="10" x="84" y="84"><title>2026-02-18</title></rect><rect fill="#EBEDF0" height="10" rx="2" ry="2" width="10" x="84" y="96"><title>2026-02-19</title></rect><rect fill="#EBEDF0" height="10" rx="2" ry="2" width="10" x="84" y="108"><title>2026-02-20</title></rect><rect fill="#EBEDF0" height="10" rx="2" ry="2" width="10" x="84" y="120"><title>2026-02-21</title></rect><rect fill="#9BE9A8" height="10" rx="2" ry="2" width="10" x="96" y="48"><title>2026-02-22 16分钟</title></rect><rect fill="#EBEDF0" height="10" rx="2" ry="2" width="10" x="96" y="60"><title>2026-02-23</title></rect><rect fill="#30A14E" height="10" rx="2" ry="2" width="10" x="96" y="72"><title>2026-02-24 1小时43分钟</title></rect><rect fill="#216E39" height="10" rx="2" ry="2" width="10" x="96" y="84"><title>2026-02-25 2小时54分钟</title></rect><rect fill="#216E39" height="10" rx="2" ry="2" width="10" x="96" y="96"><title>2026-02-26 4小时5分钟</title></rect><rect fill="#216E39" height="10" rx="2" ry="2" width="10" x="96" y="108"><title>2026-02-27 6小时1分钟</title></rect><rect fill="#216E39" height="10" rx="2" ry="2" width="10" x="96" y="120"><title>2026-02-28 3小时22分钟</title></rect><text fill="#30A14E" style="font-size:12px; font-family:Arial;" x="108" y="46">Mar</text><rect fill="#216E39" height="10" rx="2" ry="2" width="10" x="108" y="48"><title>2026-03-01 3小时47分钟</title></rect><rect fill="#216E39" height="10" rx="2" ry="2" width="10" x="108" y="60"><title>2026-03-02 4小时27分钟</title></rect><rect fill="#30A14E" height="10" rx="2" ry="2" width="10" x="108" y="72"><title>2026-03-03 1小时28分钟</title></rect><rect fill="#30A14E" height="10" rx="2" ry="2" width="10" x="108" y="84"><title>2026-03-04 1小时28分钟</title></rect><rect fill="#40C463" height="10" rx="2" ry="2" width="10" x="108" y="96"><title>2026-03-05 38分钟</title></rect><rect fill="#40C463" height="10" rx="2" ry="2" width="10" x="108" y="108"><title>2026-03-06 44分钟</title></rect><rect fill="#30A14E" height="10" rx="2" ry="2" width="10" x="108" y="120"><title>2026-03-07 1小时30分钟</title></rect><rect fill="#40C463" height="10" rx="2" ry="2" width="10" x="120" y="48"><title>2026-03-08 46分钟</title></rect><rect fill="#9BE9A8" height="10" rx="2" ry="2" width="10" x="120" y="60"><title>2026-03-09 8分钟</title></rect><rect fill="#9BE9A8" height="10" rx="2" ry="2" width="10" x="120" y="72"><title>2026-03-10 8分钟</title></rect><rect fill="#EBEDF0" height="10" rx="2" ry="2" width="10" x="120" y="84"><title>2026-03-11</title></rect><rect fill="#9BE9A8" height="10" rx="2" ry="2" width="10" x="120" y="96"><title>2026-03-12 3分钟</title></rect><rect fill="#9BE9A8" height="10" rx="2" ry="2" width="10" x="120" y="108"><title>2026-03-13 6秒</title></rect><rect fill="#EBEDF0" height="10" rx="2" ry="2" width="10" x="120" y="120"><title>2026-03-14</title></rect><rect fill="#EBEDF0" height="10" rx="2" ry="2" width="10" x="132" y="48"><title>2026-03-15</title></rect><rect fill="#EBEDF0" height="10" rx="2" ry="2" width="10" x="132" y="60"><title>2026-03-16</title></rect><rect fill="#EBEDF0" height="10" rx="2" ry="2" width="10" x="132" y="72"><title>2026-03-17</title></rect><rect fill="#EBEDF0" height="10" rx="2" ry="2" width="10" x="132" y="84"><title>2026-03-18</title></rect><rect fill="#EBEDF0" height="10" rx="2" ry="2" width="10" x="132" y="96"><title>2026-03-19</title></rect><rect fill="#EBEDF0" height="10" rx="2" ry="2" width="10" x="132" y="108"><title>2026-03-20</title></rect><rect fill="#EBEDF0" height="10" rx="2" ry="2" width="10" x="132" y="120"><title>2026-03-21</title></rect><rect fill="#EBEDF0" height="10" rx="2" ry="2" width="10" x="144" y="48"><title>2026-03-22</title></rect><rect fill="#EBEDF0" height="10" rx="2" ry="2" width="10" x="144" y="60"><title>2026-03-23</title></rect><rect fill="#EBEDF0" height="10" rx="2" ry="2" width="10" x="144" y="72"><title>2026-03-24</title></rect><rect fill="#EBEDF0" height="10" rx="2" ry="2" width="10" x="144" y="84"><title>2026-03-25</title></rect><rect fill="#EBEDF0" height="10" rx="2" ry="2" width="10" x="144" y="96"><title>2026-03-26</title></rect><rect fill="#EBEDF0" height="10" rx="2" ry="2" width="10" x="144" y="108"><title>2026-03-27</title></rect><rect fill="#9BE9A8" height="10" rx="2" ry="2" width="10" x="144" y="120"><title>2026-03-28 14秒</title></rect><rect fill="#EBEDF0" height="10" rx="2" ry="2" width="10" x="156" y="48"><title>2026-03-29</title></rect><rect fill="#EBEDF0" height="10" rx="2" ry="2" width="10" x="156" y="60"><title>2026-03-30</title></rect><rect fill="#EBEDF0" height="10" rx="2" ry="2" width="10" x="156" y="72"><title>2026-03-31</title></rect><rect fill="#EBEDF0" height="10" rx="2" ry="2" width="10" x="156" y="84"><title>2026-04-01</title></rect><rect fill="#EBEDF0" height="10" rx="2" ry="2" width="10" x="156" y="96"><title>2026-04-02</title></rect><rect fill="#EBEDF0" height="10" rx="2" ry="2" width="10" x="156" y="108"><title>2026-04-03</title></rect><rect fill="#EBEDF0" height="10" rx="2" ry="2" width="10" x="156" y="120"><title>2026-04-04</title></rect><text fill="#30A14E" style="font-size:12px; font-family:Arial;" x="168" y="46">Apr</text><rect fill="#EBEDF0" height="10" rx="2" ry="2" width="10" x="168" y="48"><title>2026-04-05</title></rect><rect fill="#EBEDF0" height="10" rx="2" ry="2" width="10" x="168" y="60"><title>2026-04-06</title></rect><rect fill="#EBEDF0" height="10" rx="2" ry="2" width="10" x="168" y="72"><title>2026-04-07</title></rect><rect fill="#EBEDF0" height="10" rx="2" ry="2" width="10" x="168" y="84"><title>2026-04-08</title></rect><rect fill="#EBEDF0" height="10" rx="2" ry="2" width="10" x="168" y="96"><title>2026-04-09</title></rect><rect fill="#EBEDF0" height="10" rx="2" ry="2" width="10" x="168" y="108"><title>2026-04-10</title></rect><rect fill="#EBEDF0" height="10" rx="2" ry="2" width="10" x="168" y="120"><title>2026-04-11</title></rect><rect fill="#EBEDF0" height="10" rx="2" ry="2" width="10" x="180" y="48"><title>2026-04-12</title></rect><rect fill="#EBEDF0" height="10" rx="2" ry="2" width="10" x="180" y="60"><title>2026-04-13</title></rect><rect fill="#EBEDF0" height="10" rx="2" ry="2" width="10" x="180" y="72"><title>2026-04-14</title></rect><rect fill="#EBEDF0" height="10" rx="2" ry="2" width="10" x="180" y="84"><title>2026-04-15</title></rect><rect fill="#EBEDF0" height="10" rx="2" ry="2" width="10" x="180" y="96"><title>2026-04-16</title></rect><rect fill="#EBEDF0" height="10" rx="2" ry="2" width="10" x="180" y="108"><title>2026-04-17</title></rect><rect fill="#EBEDF0" height="10" rx="2" ry="2" width="10" x="180" y="120"><title>2026-04-18</title></rect><rect fill="#EBEDF0" height="10" rx="2" ry="2" width="10" x="192" y="48"><title>2026-04-19</title></rect><rect fill="#EBEDF0" height="10" rx="2" ry="2" width="10" x="192" y="60"><title>2026-04-20</title></rect><rect fill="#EBEDF0" height="10" rx="2" ry="2" width="10" x="192" y="72"><title>2026-04-21</title></rect><rect fill="#EBEDF0" height="10" rx="2" ry="2" width="10" x="192" y="84"><title>2026-04-22</title></rect><rect fill="#EBEDF0" height="10" rx="2" ry="2" width="10" x="192" y="96"><title>2026-04-23</title></rect><rect fill="#EBEDF0" height="10" rx="2" ry="2" width="10" x="192" y="108"><title>2026-04-24</title></rect><rect fill="#9BE9A8" height="10" rx="2" ry="2" width="10" x="192" y="120"><title>2026-04-25 29秒</title></rect><rect fill="#EBEDF0" height="10" rx="2" ry="2" width="10" x="204" y="48"><title>2026-04-26</title></rect><rect fill="#EBEDF0" height="10" rx="2" ry="2" width="10" x="204" y="60"><title>2026-04-27</title></rect><rect fill="#EBEDF0" height="10" rx="2" ry="2" width="10" x="204" y="72"><title>2026-04-28</title></rect><rect fill="#EBEDF0" height="10" rx="2" ry="2" width="10" x="204" y="84"><title>2026-04-29</title></rect><rect fill="#EBEDF0" height="10" rx="2" ry="2" width="10" x="204" y="96"><title>2026-04-30</title></rect><rect fill="#9BE9A8" height="10" rx="2" ry="2" width="10" x="204" y="108"><title>2026-05-01 28分钟</title></rect><rect fill="#40C463" height="10" rx="2" ry="2" width="10" x="204" y="120"><title>2026-05-02 49分钟</title></rect><text fill="#30A14E" style="font-size:12px; font-family:Arial;" x="216" y="46">May</text><rect fill="#9BE9A8" height="10" rx="2" ry="2" width="10" x="216" y="48"><title>2026-05-03 7分钟</title></rect><rect fill="#9BE9A8" height="10" rx="2" ry="2" width="10" x="216" y="60"><title>2026-05-04 8分钟</title></rect><rect fill="#9BE9A8" height="10" rx="2" ry="2" width="10" x="216" y="72"><title>2026-05-05 1秒</title></rect><rect fill="#EBEDF0" height="10" rx="2" ry="2" width="10" x="216" y="84"><title>2026-05-06</title></rect><rect fill="#EBEDF0" height="10" rx="2" ry="2" width="10" x="216" y="96"><title>2026-05-07</title></rect><rect fill="#EBEDF0" height="10" rx="2" ry="2" width="10" x="216" y="108"><title>2026-05-08</title></rect><rect fill="#EBEDF0" height="10" rx="2" ry="2" width="10" x="216" y="120"><title>2026-05-09</title></rect><rect fill="#9BE9A8" height="10" rx="2" ry="2" width="10" x="228" y="48"><title>2026-05-10 10分钟</title></rect><rect fill="#EBEDF0" height="10" rx="2" ry="2" width="10" x="228" y="60"><title>2026-05-11</title></rect><rect fill="#EBEDF0" height="10" rx="2" ry="2" width="10" x="228" y="72"><title>2026-05-12</title></rect><rect fill="#EBEDF0" height="10" rx="2" ry="2" width="10" x="228" y="84"><title>2026-05-13</title></rect><rect fill="#9BE9A8" height="10" rx="2" ry="2" width="10" x="228" y="96"><title>2026-05-14 2分钟</title></rect><rect fill="#EBEDF0" height="10" rx="2" ry="2" width="10" x="228" y="108"><title>2026-05-15</title></rect><rect fill="#EBEDF0" height="10" rx="2" ry="2" width="10" x="228" y="120"><title>2026-05-16</title></rect><rect fill="#EBEDF0" height="10" rx="2" ry="2" width="10" x="240" y="48"><title>2026-05-17</title></rect><rect fill="#216E39" height="10" rx="2" ry="2" width="10" x="240" y="60"><title>2026-05-18 2小时44分钟</title></rect><rect fill="#30A14E" height="10" rx="2" ry="2" width="10" x="240" y="72"><title>2026-05-19 1小时24分钟</title></rect><rect fill="#9BE9A8" height="10" rx="2" ry="2" width="10" x="240" y="84"><title>2026-05-20 24分钟</title></rect><rect fill="#40C463" height="10" rx="2" ry="2" width="10" x="240" y="96"><title>2026-05-21 37分钟</title></rect><rect fill="#EBEDF0" height="10" rx="2" ry="2" width="10" x="240" y="108"><title>2026-05-22</title></rect><rect fill="#EBEDF0" height="10" rx="2" ry="2" width="10" x="240" y="120"><title>2026-05-23</title></rect><rect fill="#EBEDF0" height="10" rx="2" ry="2" width="10" x="252" y="48"><title>2026-05-24</title></rect><rect fill="#EBEDF0" height="10" rx="2" ry="2" width="10" x="252" y="60"><title>2026-05-25</title></rect><rect fill="#EBEDF0" height="10" rx="2" ry="2" width="10" x="252" y="72"><title>2026-05-26</title></rect><rect fill="#EBEDF0" height="10" rx="2" ry="2" width="10" x="252" y="84"><title>2026-05-27</title></rect><rect fill="#EBEDF0" height="10" rx="2" ry="2" width="10" x="252" y="96"><title>2026-05-28</title></rect><rect fill="#EBEDF0" height="10" rx="2" ry="2" width="10" x="252" y="108"><title>2026-05-29</title></rect><rect fill="#EBEDF0" height="10" rx="2" ry="2" width="10" x="252" y="120"><title>2026-05-30</title></rect><rect fill="#EBEDF0" height="10" rx="2" ry="2" width="10" x="264" y="48"><title>2026-05-31</title></rect><rect fill="#EBEDF0" height="10" rx="2" ry="2" width="10" x="264" y="60"><title>2026-06-01</title></rect><rect fill="#EBEDF0" height="10" rx="2" ry="2" width="10" x="264" y="72"><title>2026-06-02</title></rect><rect fill="#EBEDF0" height="10" rx="2" ry="2" width="10" x="264" y="84"><title>2026-06-03</title></rect><rect fill="#EBEDF0" height="10" rx="2" ry="2" width="10" x="264" y="96"><title>2026-06-04</title></rect><rect fill="#EBEDF0" height="10" rx="2" ry="2" width="10" x="264" y="108"><title>2026-06-05</title></rect><rect fill="#EBEDF0" height="10" rx="2" ry="2" width="10" x="264" y="120"><title>2026-06-06</title></rect><text fill="#30A14E" style="font-size:12px; font-family:Arial;" x="276" y="46">Jun</text><rect fill="#EBEDF0" height="10" rx="2" ry="2" width="10" x="276" y="48"><title>2026-06-07</title></rect><rect fill="#EBEDF0" height="10" rx="2" ry="2" width="10" x="276" y="60"><title>2026-06-08</title></rect><rect fill="#EBEDF0" height="10" rx="2" ry="2" width="10" x="276" y="72"><title>2026-06-09</title></rect><rect fill="#EBEDF0" height="10" rx="2" ry="2" width="10" x="276" y="84"><title>2026-06-10</title></rect><rect fill="#EBEDF0" height="10" rx="2" ry="2" width="10" x="276" y="96"><title>2026-06-11</title></rect><rect fill="#EBEDF0" height="10" rx="2" ry="2" width="10" x="276" y="108"><title>2026-06-12</title></rect><rect fill="#EBEDF0" height="10" rx="2" ry="2" width="10" x="276" y="120"><title>2026-06-13</title></rect><rect fill="#EBEDF0" height="10" rx="2" ry="2" width="10" x="288" y="48"><title>2026-06-14</title></rect><rect fill="#EBEDF0" height="10" rx="2" ry="2" width="10" x="288" y="60"><title>2026-06-15</title></rect><rect fill="#EBEDF0" height="10" rx="2" ry="2" width="10" x="288" y="72"><title>2026-06-16</title></rect><rect fill="#EBEDF0" height="10" rx="2" ry="2" width="10" x="288" y="84"><title>2026-06-17</title></rect><rect fill="#EBEDF0" height="10" rx="2" ry="2" width="10" x="288" y="96"><title>2026-06-18</title></rect><rect fill="#EBEDF0" height="10" rx="2" ry="2" width="10" x="288" y="108"><title>2026-06-19</title></rect><rect fill="#EBEDF0" height="10" rx="2" ry="2" width="10" x="288" y="120"><title>2026-06-20</title></rect><rect fill="#EBEDF0" height="10" rx="2" ry="2" width="10" x="300" y="48"><title>2026-06-21</title></rect><rect fill="#EBEDF0" height="10" rx="2" ry="2" width="10" x="300" y="60"><title>2026-06-22</title></rect><rect fill="#EBEDF0" height="10" rx="2" ry="2" width="10" x="300" y="72"><title>2026-06-23</title></rect><rect fill="#EBEDF0" height="10" rx="2" ry="2" width="10" x="300" y="84"><title>2026-06-24</title></rect><rect fill="#EBEDF0" height="10" rx="2" ry="2" width="10" x="300" y="96"><title>2026-06-25</title></rect><rect fill="#EBEDF0" height="10" rx="2" ry="2" width="10" x="300" y="108"><title>2026-06-26</title></rect><rect fill="#EBEDF0" height="10" rx="2" ry="2" width="10" x="300" y="120"><title>2026-06-27</title></rect><rect fill="#EBEDF0" height="10" rx="2" ry="2" width="10" x="312" y="48"><title>2026-06-28</title></rect><rect fill="#EBEDF0" height="10" rx="2" ry="2" width="10" x="312" y="60"><title>2026-06-29</title></rect><rect fill="#EBEDF0" height="10" rx="2" ry="2" width="10" x="312" y="72"><title>2026-06-30</title></rect><rect fill="#EBEDF0" height="10" rx="2" ry="2" width="10" x="312" y="84"><title>2026-07-01</title></rect><rect fill="#EBEDF0" height="10" rx="2" ry="2" width="10" x="312" y="96"><title>2026-07-02</title></rect><rect fill="#EBEDF0" height="10" rx="2" ry="2" width="10" x="312" y="108"><title>2026-07-03</title></rect><rect fill="#EBEDF0" height="10" rx="2" ry="2" width="10" x="312" y="120"><title>2026-07-04</title></rect><text fill="#30A14E" style="font-size:12px; font-family:Arial;" x="324" y="46">Jul</text><rect fill="#EBEDF0" height="10" rx="2" ry="2" width="10" x="324" y="48"><title>2026-07-05</title></rect><rect fill="#EBEDF0" height="10" rx="2" ry="2" width="10" x="324" y="60"><title>2026-07-06</title></rect><rect fill="#EBEDF0" height="10" rx="2" ry="2" width="10" x="324" y="72"><title>2026-07-07</title></rect><rect fill="#EBEDF0" height="10" rx="2" ry="2" width="10" x="324" y="84"><title>2026-07-08</title></rect><rect fill="#EBEDF0" height="10" rx="2" ry="2" width="10" x="324" y="96"><title>2026-07-09</title></rect><rect fill="#EBEDF0" height="10" rx="2" ry="2" width="10" x="324" y="108"><title>2026-07-10</title></rect><rect fill="#EBEDF0" height="10" rx="2" ry="2" width="10" x="324" y="120"><title>2026-07-11</title></rect><rect fill="#EBEDF0" height="10" rx="2" ry="2" width="10" x="336" y="48"><title>2026-07-12</title></rect><rect fill="#EBEDF0" height="10" rx="2" ry="2" width="10" x="336" y="60"><title>2026-07-13</title></rect><rect fill="#EBEDF0" height="10" rx="2" ry="2" width="10" x="336" y="72"><title>2026-07-14</title></rect><rect fill="#EBEDF0" height="10" rx="2" ry="2" width="10" x="336" y="84"><title>2026-07-15</title></rect><rect fill="#EBEDF0" height="10" rx="2" ry="2" width="10" x="336" y="96"><title>2026-07-16</title></rect><rect fill="#EBEDF0" height="10" rx="2" ry="2" width="10" x="336" y="108"><title>2026-07-17</title></rect><rect fill="#EBEDF0" height="10" rx="2" ry="2" width="10" x="336" y="120"><title>2026-07-18</title></rect><rect fill="#EBEDF0" height="10" rx="2" ry="2" width="10" x="348" y="48"><title>2026-07-19</title></rect><rect fill="#EBEDF0" height="10" rx="2" ry="2" width="10" x="348" y="60"><title>2026-07-20</title></rect><rect fill="#EBEDF0" height="10" rx="2" ry="2" width="10" x="348" y="72"><title>2026-07-21</title></rect><rect fill="#EBEDF0" height="10" rx="2" ry="2" width="10" x="348" y="84"><title>2026-07-22</title></rect><rect fill="#EBEDF0" height="10" rx="2" ry="2" width="10" x="348" y="96"><title>2026-07-23</title></rect><rect fill="#EBEDF0" height="10" rx="2" ry="2" width="10" x="348" y="108"><title>2026-07-24</title></rect><rect fill="#EBEDF0" height="10" rx="2" ry="2" width="10" x="348" y="120"><title>2026-07-25</title></rect><rect fill="#EBEDF0" height="10" rx="2" ry="2" width="10" x="360" y="48"><title>2026-07-26</title></rect><rect fill="#EBEDF0" height="10" rx="2" ry="2" width="10" x="360" y="60"><title>2026-07-27</title></rect><rect fill="#EBEDF0" height="10" rx="2" ry="2" width="10" x="360" y="72"><title>2026-07-28</title></rect><rect fill="#EBEDF0" height="10" rx="2" ry="2" width="10" x="360" y="84"><title>2026-07-29</title></rect><rect fill="#EBEDF0" height="10" rx="2" ry="2" width="10" x="360" y="96"><title>2026-07-30</title></rect><rect fill="#EBEDF0" height="10" rx="2" ry="2" width="10" x="360" y="108"><title>2026-07-31</title></rect><rect fill="#EBEDF0" height="10" rx="2" ry="2" width="10" x="360" y="120"><title>2026-08-01</title></rect><text fill="#30A14E" style="font-size:12px; font-family:Arial;" x="372" y="46">Aug</text><rect fill="#EBEDF0" height="10" rx="2" ry="2" width="10" x="372" y="48"><title>2026-08-02</title></rect><rect fill="#EBEDF0" height="10" rx="2" ry="2" width="10" x="372" y="60"><title>2026-08-03</title></rect><rect fill="#EBEDF0" height="10" rx="2" ry="2" width="10" x="372" y="72"><title>2026-08-04</title></rect><rect fill="#EBEDF0" height="10" rx="2" ry="2" width="10" x="372" y="84"><title>2026-08-05</title></rect><rect fill="#EBEDF0" height="10" rx="2" ry="2" width="10" x="372" y="96"><title>2026-08-06</title></rect><rect fill="#EBEDF0" height="10" rx="2" ry="2" width="10" x="372" y="108"><title>2026-08-07</title></rect><rect fill="#EBEDF0" height="10" rx="2" ry="2" width="10" x="372" y="120"><title>2026-08-08</title></rect><rect fill="#EBEDF0" height="10" rx="2" ry="2" width="10" x="384" y="48"><title>2026-08-09</title></rect><rect fill="#EBEDF0" height="10" rx="2" ry="2" width="10" x="384" y="60"><title>2026-08-10</title></rect><rect fill="#EBEDF0" height="10" rx="2" ry="2" width="10" x="384" y="72"><title>2026-08-11</title></rect><rect fill="#EBEDF0" height="10" rx="2" ry="2" width="10" x="384" y="84"><title>2026-08-12</title></rect><rect fill="#EBEDF0" height="10" rx="2" ry="2" width="10" x="384" y="96"><title>2026-08-13</title></rect><rect fill="#EBEDF0" height="10" rx="2" ry="2" width="10" x="384" y="108"><title>2026-08-14</title></rect><rect fill="#EBEDF0" height="10" rx="2" ry="2" width="10" x="384" y="120"><title>2026-08-15</title></rect><rect fill="#EBEDF0" height="10" rx="2" ry="2" width="10" x="396" y="48"><title>2026-08-16</title></rect><rect fill="#EBEDF0" height="10" rx="2" ry="2" width="10" x="396" y="60"><title>2026-08-17</title></rect><rect fill="#EBEDF0" height="10" rx="2" ry="2" width="10" x="396" y="72"><title>2026-08-18</title></rect><rect fill="#EBEDF0" height="10" rx="2" ry="2" width="10" x="396" y="84"><title>2026-08-19</title></rect><rect fill="#EBEDF0" height="10" rx="2" ry="2" width="10" x="396" y="96"><title>2026-08-20</title></rect><rect fill="#EBEDF0" height="10" rx="2" ry="2" width="10" x="396" y="108"><title>2026-08-21</title></rect><rect fill="#EBEDF0" height="10" rx="2" ry="2" width="10" x="396" y="120"><title>2026-08-22</title></rect><rect fill="#EBEDF0" height="10" rx="2" ry="2" width="10" x="408" y="48"><title>2026-08-23</title></rect><rect fill="#EBEDF0" height="10" rx="2" ry="2" width="10" x="408" y="60"><title>2026-08-24</title></rect><rect fill="#EBEDF0" height="10" rx="2" ry="2" width="10" x="408" y="72"><title>2026-08-25</title></rect><rect fill="#EBEDF0" height="10" rx="2" ry="2" width="10" x="408" y="84"><title>2026-08-26</title></rect><rect fill="#EBEDF0" height="10" rx="2" ry="2" width="10" x="408" y="96"><title>2026-08-27</title></rect><rect fill="#EBEDF0" height="10" rx="2" ry="2" width="10" x="408" y="108"><title>2026-08-28</title></rect><rect fill="#EBEDF0" height="10" rx="2" ry="2" width="10" x="408" y="120"><title>2026-08-29</title></rect><rect fill="#EBEDF0" height="10" rx="2" ry="2" width="10" x="420" y="48"><title>2026-08-30</title></rect><rect fill="#EBEDF0" height="10" rx="2" ry="2" width="10" x="420" y="60"><title>2026-08-31</title></rect><rect fill="#EBEDF0" height="10" rx="2" ry="2" width="10" x="420" y="72"><title>2026-09-01</title></rect><rect fill="#EBEDF0" height="10" rx="2" ry="2" width="10" x="420" y="84"><title>2026-09-02</title></rect><rect fill="#EBEDF0" height="10" rx="2" ry="2" width="10" x="420" y="96"><title>2026-09-03</title></rect><rect fill="#EBEDF0" height="10" rx="2" ry="2" width="10" x="420" y="108"><title>2026-09-04</title></rect><rect fill="#EBEDF0" height="10" rx="2" ry="2" width="10" x="420" y="120"><title>2026-09-05</title></rect><text fill="#30A14E" style="font-size:12px; font-family:Arial;" x="432" y="46">Sep</text><rect fill="#EBEDF0" height="10" rx="2" ry="2" width="10" x="432" y="48"><title>2026-09-06</title></rect><rect fill="#EBEDF0" height="10" rx="2" ry="2" width="10" x="432" y="60"><title>2026-09-07</title></rect><rect fill="#EBEDF0" height="10" rx="2" ry="2" width="10" x="432" y="72"><title>2026-09-08</title></rect><rect fill="#EBEDF0" height="10" rx="2" ry="2" width="10" x="432" y="84"><title>2026-09-09</title></rect><rect fill="#EBEDF0" height="10" rx="2" ry="2" width="10" x="432" y="96"><title>2026-09-10</title></rect><rect fill="#EBEDF0" height="10" rx="2" ry="2" width="10" x="432" y="108"><title>2026-09-11</title></rect><rect fill="#EBEDF0" height="10" rx="2" ry="2" width="10" x="432" y="120"><title>2026-09-12</title></rect><rect fill="#EBEDF0" height="10" rx="2" ry="2" width="10" x="444" y="48"><title>2026-09-13</title></rect><rect fill="#EBEDF0" height="10" rx="2" ry="2" width="10" x="444" y="60"><title>2026-09-14</title></rect><rect fill="#EBEDF0" height="10" rx="2" ry="2" width="10" x="444" y="72"><title>2026-09-15</title></rect><rect fill="#EBEDF0" height="10" rx="2" ry="2" width="10" x="444" y="84"><title>2026-09-16</title></rect><rect fill="#EBEDF0" height="10" rx="2" ry="2" width="10" x="444" y="96"><title>2026-09-17</title></rect><rect fill="#EBEDF0" height="10" rx="2" ry="2" width="10" x="444" y="108"><title>2026-09-18</title></rect><rect fill="#EBEDF0" height="10" rx="2" ry="2" width="10" x="444" y="120"><title>2026-09-19</title></rect><rect fill="#EBEDF0" height="10" rx="2" ry="2" width="10" x="456" y="48"><title>2026-09-20</title></rect><rect fill="#EBEDF0" height="10" rx="2" ry="2" width="10" x="456" y="60"><title>2026-09-21</title></rect><rect fill="#EBEDF0" height="10" rx="2" ry="2" width="10" x="456" y="72"><title>2026-09-22</title></rect><rect fill="#EBEDF0" height="10" rx="2" ry="2" width="10" x="456" y="84"><title>2026-09-23</title></rect><rect fill="#EBEDF0" height="10" rx="2" ry="2" width="10" x="456" y="96"><title>2026-09-24</title></rect><rect fill="#EBEDF0" height="10" rx="2" ry="2" width="10" x="456" y="108"><title>2026-09-25</title></rect><rect fill="#EBEDF0" height="10" rx="2" ry="2" width="10" x="456" y="120"><title>2026-09-26</title></rect><rect fill="#EBEDF0" height="10" rx="2" ry="2" width="10" x="468" y="48"><title>2026-09-27</title></rect><rect fill="#EBEDF0" height="10" rx="2" ry="2" width="10" x="468" y="60"><title>2026-09-28</title></rect><rect fill="#EBEDF0" height="10" rx="2" ry="2" width="10" x="468" y="72"><title>2026-09-29</title></rect><rect fill="#EBEDF0" height="10" rx="2" ry="2" width="10" x="468" y="84"><title>2026-09-30</title></rect><rect fill="#EBEDF0" height="10" rx="2" ry="2" width="10" x="468" y="96"><title>2026-10-01</title></rect><rect fill="#EBEDF0" height="10" rx="2" ry="2" width="10" x="468" y="108"><title>2026-10-02</title></rect><rect fill="#EBEDF0" height="10" rx="2" ry="2" width="10" x="468" y="120"><title>2026-10-03</title></rect><text fill="#30A14E" style="font-size:12px; font-family:Arial;" x="480" y="46">Oct</text><rect fill="#EBEDF0" height="10" rx="2" ry="2" width="10" x="480" y="48"><title>2026-10-04</title></rect><rect fill="#EBEDF0" height="10" rx="2" ry="2" width="10" x="480" y="60"><title>2026-10-05</title></rect><rect fill="#EBEDF0" height="10" rx="2" ry="2" width="10" x="480" y="72"><title>2026-10-06</title></rect><rect fill="#EBEDF0" height="10" rx="2" ry="2" width="10" x="480" y="84"><title>2026-10-07</title></rect><rect fill="#EBEDF0" height="10" rx="2" ry="2" width="10" x="480" y="96"><title>2026-10-08</title></rect><rect fill="#EBEDF0" height="10" rx="2" ry="2" width="10" x="480" y="108"><title>2026-10-09</title></rect><rect fill="#EBEDF0" height="10" rx="2" ry="2" width="10" x="480" y="120"><title>2026-10-10</title></rect><rect fill="#EBEDF0" height="10" rx="2" ry="2" width="10" x="492" y="48"><title>2026-10-11</title></rect><rect fill="#EBEDF0" height="10" rx="2" ry="2" width="10" x="492" y="60"><title>2026-10-12</title></rect><rect fill="#EBEDF0" height="10" rx="2" ry="2" width="10" x="492" y="72"><title>2026-10-13</title></rect><rect fill="#EBEDF0" height="10" rx="2" ry="2" width="10" x="492" y="84"><title>2026-10-14</title></rect><rect fill="#EBEDF0" height="10" rx="2" ry="2" width="10" x="492" y="96"><title>2026-10-15</title></rect><rect fill="#EBEDF0" height="10" rx="2" ry="2" width="10" x="492" y="108"><title>2026-10-16</title></rect><rect fill="#EBEDF0" height="10" rx="2" ry="2" width="10" x="492" y="120"><title>2026-10-17</title></rect><rect fill="#EBEDF0" height="10" rx="2" ry="2" width="10" x="504" y="48"><title>2026-10-18</title></rect><rect fill="#EBEDF0" height="10" rx="2" ry="2" width="10" x="504" y="60"><title>2026-10-19</title></rect><rect fill="#EBEDF0" height="10" rx="2" ry="2" width="10" x="504" y="72"><title>2026-10-20</title></rect><rect fill="#EBEDF0" height="10" rx="2" ry="2" width="10" x="504" y="84"><title>2026-10-21</title></rect><rect fill="#EBEDF0" height="10" rx="2" ry="2" width="10" x="504" y="96"><title>2026-10-22</title></rect><rect fill="#EBEDF0" height="10" rx="2" ry="2" width="10" x="504" y="108"><title>2026-10-23</title></rect><rect fill="#EBEDF0" height="10" rx="2" ry="2" width="10" x="504" y="120"><title>2026-10-24</title></rect><rect fill="#EBEDF0" height="10" rx="2" ry="2" width="10" x="516" y="48"><title>2026-10-25</title></rect><rect fill="#EBEDF0" height="10" rx="2" ry="2" width="10" x="516" y="60"><title>2026-10-26</title></rect><rect fill="#EBEDF0" height="10" rx="2" ry="2" width="10" x="516" y="72"><title>2026-10-27</title></rect><rect fill="#EBEDF0" height="10" rx="2" ry="2" width="10" x="516" y="84"><title>2026-10-28</title></rect><rect fill="#EBEDF0" height="10" rx="2" ry="2" width="10" x="516" y="96"><title>2026-10-29</title></rect><rect fill="#EBEDF0" height="10" rx="2" ry="2" width="10" x="516" y="108"><title>2026-10-30</title></rect><rect fill="#EBEDF0" height="10" rx="2" ry="2" width="10" x="516" y="120"><title>2026-10-31</title></rect><text fill="#30A14E" style="font-size:12px; font-family:Arial;" x="528" y="46">Nov</text><rect fill="#EBEDF0" height="10" rx="2" ry="2" width="10" x="528" y="48"><title>2026-11-01</title></rect><rect fill="#EBEDF0" height="10" rx="2" ry="2" width="10" x="528" y="60"><title>2026-11-02</title></rect><rect fill="#EBEDF0" height="10" rx="2" ry="2" width="10" x="528" y="72"><title>2026-11-03</title></rect><rect fill="#EBEDF0" height="10" rx="2" ry="2" width="10" x="528" y="84"><title>2026-11-04</title></rect><rect fill="#EBEDF0" height="10" rx="2" ry="2" width="10" x="528" y="96"><title>2026-11-05</title></rect><rect fill="#EBEDF0" height="10" rx="2" ry="2" width="10" x="528" y="108"><title>2026-11-06</title></rect><rect fill="#EBEDF0" height="10" rx="2" ry="2" width="10" x="528" y="120"><title>2026-11-07</title></rect><rect fill="#EBEDF0" height="10" rx="2" ry="2" width="10" x="540" y="48"><title>2026-11-08</title></rect><rect fill="#EBEDF0" height="10" rx="2" ry="2" width="10" x="540" y="60"><title>2026-11-09</title></rect><rect fill="#EBEDF0" height="10" rx="2" ry="2" width="10" x="540" y="72"><title>2026-11-10</title></rect><rect fill="#EBEDF0" height="10" rx="2" ry="2" width="10" x="540" y="84"><title>2026-11-11</title></rect><rect fill="#EBEDF0" height="10" rx="2" ry="2" width="10" x="540" y="96"><title>2026-11-12</title></rect><rect fill="#EBEDF0" height="10" rx="2" ry="2" width="10" x="540" y="108"><title>2026-11-13</title></rect><rect fill="#EBEDF0" height="10" rx="2" ry="2" width="10" x="540" y="120"><title>2026-11-14</title></rect><rect fill="#EBEDF0" height="10" rx="2" ry="2" width="10" x="552" y="48"><title>2026-11-15</title></rect><rect fill="#EBEDF0" height="10" rx="2" ry="2" width="10" x="552" y="60"><title>2026-11-16</title></rect><rect fill="#EBEDF0" height="10" rx="2" ry="2" width="10" x="552" y="72"><title>2026-11-17</title></rect><rect fill="#EBEDF0" height="10" rx="2" ry="2" width="10" x="552" y="84"><title>2026-11-18</title></rect><rect fill="#EBEDF0" height="10" rx="2" ry="2" width="10" x="552" y="96"><title>2026-11-19</title></rect><rect fill="#EBEDF0" height="10" rx="2" ry="2" width="10" x="552" y="108"><title>2026-11-20</title></rect><rect fill="#EBEDF0" height="10" rx="2" ry="2" width="10" x="552" y="120"><title>2026-11-21</title></rect><rect fill="#EBEDF0" height="10" rx="2" ry="2" width="10" x="564" y="48"><title>2026-11-22</title></rect><rect fill="#EBEDF0" height="10" rx="2" ry="2" width="10" x="564" y="60"><title>2026-11-23</title></rect><rect fill="#EBEDF0" height="10" rx="2" ry="2" width="10" x="564" y="72"><title>2026-11-24</title></rect><rect fill="#EBEDF0" height="10" rx="2" ry="2" width="10" x="564" y="84"><title>2026-11-25</title></rect><rect fill="#EBEDF0" height="10" rx="2" ry="2" width="10" x="564" y="96"><title>2026-11-26</title></rect><rect fill="#EBEDF0" height="10" rx="2" ry="2" width="10" x="564" y="108"><title>2026-11-27</title></rect><rect fill="#EBEDF0" height="10" rx="2" ry="2" width="10" x="564" y="120"><title>2026-11-28</title></rect><rect fill="#EBEDF0" height="10" rx="2" ry="2" width="10" x="576" y="48"><title>2026-11-29</title></rect><rect fill="#EBEDF0" height="10" rx="2" ry="2" width="10" x="576" y="60"><title>2026-11-30</title></rect><rect fill="#EBEDF0" height="10" rx="2" ry="2" width="10" x="576" y="72"><title>2026-12-01</title></rect><rect fill="#EBEDF0" height="10" rx="2" ry="2" width="10" x="576" y="84"><title>2026-12-02</title></rect><rect fill="#EBEDF0" height="10" rx="2" ry="2" width="10" x="576" y="96"><title>2026-12-03</title></rect><rect fill="#EBEDF0" height="10" rx="2" ry="2" width="10" x="576" y="108"><title>2026-12-04</title></rect><rect fill="#EBEDF0" height="10" rx="2" ry="2" width="10" x="576" y="120"><title>2026-12-05</title></rect><text fill="#30A14E" style="font-size:12px; font-family:Arial;" x="588" y="46">Dec</text><rect fill="#EBEDF0" height="10" rx="2" ry="2" width="10" x="588" y="48"><title>2026-12-06</title></rect><rect fill="#EBEDF0" height="10" rx="2" ry="2" width="10" x="588" y="60"><title>2026-12-07</title></rect><rect fill="#EBEDF0" height="10" rx="2" ry="2" width="10" x="588" y="72"><title>2026-12-08</title></rect><rect fill="#EBEDF0" height="10" rx="2" ry="2" width="10" x="588" y="84"><title>2026-12-09</title></rect><rect fill="#EBEDF0" height="10" rx="2" ry="2" width="10" x="588" y="96"><title>2026-12-10</title></rect><rect fill="#EBEDF0" height="10" rx="2" ry="2" width="10" x="588" y="108"><title>2026-12-11</title></rect><rect fill="#EBEDF0" height="10" rx="2" ry="2" width="10" x="588" y="120"><title>2026-12-12</title></rect><rect fill="#EBEDF0" height="10" rx="2" ry="2" width="10" x="600" y="48"><title>2026-12-13</title></rect><rect fill="#EBEDF0" height="10" rx="2" ry="2" width="10" x="600" y="60"><title>2026-12-14</title></rect><rect fill="#EBEDF0" height="10" rx="2" ry="2" width="10" x="600" y="72"><title>2026-12-15</title></rect><rect fill="#EBEDF0" height="10" rx="2" ry="2" width="10" x="600" y="84"><title>2026-12-16</title></rect><rect fill="#EBEDF0" height="10" rx="2" ry="2" width="10" x="600" y="96"><title>2026-12-17</title></rect><rect fill="#EBEDF0" height="10" rx="2" ry="2" width="10" x="600" y="108"><title>2026-12-18</title></rect><rect fill="#EBEDF0" height="10" rx="2" ry="2" width="10" x="600" y="120"><title>2026-12-19</title></rect><rect fill="#EBEDF0" height="10" rx="2" ry="2" width="10" x="612" y="48"><title>2026-12-20</title></rect><rect fill="#EBEDF0" height="10" rx="2" ry="2" width="10" x="612" y="60"><title>2026-12-21</title></rect><rect fill="#EBEDF0" height="10" rx="2" ry="2" width="10" x="612" y="72"><title>2026-12-22</title></rect><rect fill="#EBEDF0" height="10" rx="2" ry="2" width="10" x="612" y="84"><title>2026-12-23</title></rect><rect fill="#EBEDF0" height="10" rx="2" ry="2" width="10" x="612" y="96"><title>2026-12-24</title></rect><rect fill="#EBEDF0" height="10" rx="2" ry="2" width="10" x="612" y="108"><title>2026-12-25</title></rect><rect fill="#EBEDF0" height="10" rx="2" ry="2" width="10" x="612" y="120"><title>2026-12-26</title></rect><rect fill="#EBEDF0" height="10" rx="2" ry="2" width="10" x="624" y="48"><title>2026-12-27</title></rect><rect fill="#EBEDF0" height="10" rx="2" ry="2" width="10" x="624" y="60"><title>2026-12-28</title></rect><rect fill="#EBEDF0" height="10" rx="2" ry="2" width="10" x="624" y="72"><title>2026-12-29</title></rect><rect fill="#EBEDF0" height="10" rx="2" ry="2" width="10" x="624" y="84"><title>2026-12-30</title></rect><rect fill="#EBEDF0" height="10" rx="2" ry="2" width="10" x="624" y="96"><title>2026-12-31</title></rect><text fill="#30A14E" style="font-size:12px; font-family:Arial; font-style:italic;" x="0" y="145">2026年度总阅读时间: 48小时22分钟</text></svg>